<svg xmlns="http://www.w3.org/2000/svg" xmlns:xlink="http://www.w3.org/1999/xlink" viewBox="0 0 8000 8000"><defs><style>.cls-1{fill:url(#linear-gradient);}.cls-2{fill:url(#linear-gradient-2);}.cls-3{fill:url(#linear-gradient-3);}</style><linearGradient id="linear-gradient" x1="6602.44" y1="1880.35" x2="4776.62" y2="5042.75" gradientUnits="userSpaceOnUse"><stop offset="0.42" stop-color="#26b14c"/><stop offset="0.46" stop-color="#25b265"/><stop offset="0.56" stop-color="#23b4ac"/><stop offset="0.64" stop-color="#22b5d9"/><stop offset="0.68" stop-color="#21b6ea"/><stop offset="0.69" stop-color="#24b0e6"/><stop offset="0.71" stop-color="#3299d5"/><stop offset="0.74" stop-color="#3c87c8"/><stop offset="0.78" stop-color="#447abf"/><stop offset="0.83" stop-color="#4873ba"/><stop offset="0.95" stop-color="#4971b8"/></linearGradient><linearGradient id="linear-gradient-2" x1="2711.59" y1="1676.28" x2="3362.65" y2="5368.66" gradientUnits="userSpaceOnUse"><stop offset="0.43" stop-color="#ed1c24"/><stop offset="0.51" stop-color="#f4691f"/><stop offset="0.59" stop-color="#faa81b"/><stop offset="0.64" stop-color="#fecf18"/><stop offset="0.67" stop-color="#ffde17"/><stop offset="0.96" stop-color="#fedd11"/></linearGradient><linearGradient id="linear-gradient-3" x1="2865.09" y1="2292.74" x2="3091.75" y2="3578.18" xlink:href="#linear-gradient-2"/></defs><title>Artboard 1</title><g id="Layer_1" data-name="Layer 1"><path class="cls-1" d="M6357.75,3588.91q0,866.54-.05,1733.05c0,26.74.75,53.58-1.28,80.19-3.48,45.53-18.45,59.31-65.93,63.18-16,1.3-32.07,1-48.11,1q-333,.09-665.94-.09c-100-.18-104.37-4.44-104.44-104q-.45-686-.15-1372,0-645.89,0-1291.76c0-24.07.61-48.18-.47-72.2-2.61-58.28-16.82-68-68.65-44.42-77.9,35.37-155.19,72.09-232.55,108.65-108.78,51.41-217.33,103.32-326.14,154.68-14.43,6.81-29.44,12.89-44.79,17.07-19.56,5.32-37.34-4.13-44.84-24a390,390,0,0,1-15.56-53.84q-54.34-246.76-107.95-493.69c-4.53-20.87-7.59-42.07-11.4-63.1-5.57-30.77,7.66-51.59,34.4-65.31,11.9-6.1,23.62-12.57,35.75-18.19q283.83-131.51,567.76-262.84c97-45,194.44-89.2,290.64-135.9,44.36-21.54,89.23-32.91,138.76-32.61,187.21,1.12,374.42.31,561.63.61a460.37,460.37,0,0,1,63.86,4.24c23.67,3.36,38.75,18.62,41.94,42.2,2.85,21.1,3.27,42.63,3.36,64,.35,88.26.17,176.52.17,264.78ZM4807.52,2789.36c36.21,5,60.44-14.22,86.46-26.61,156.92-74.66,313.4-150.24,470.34-224.86,33.75-16,68.29-30.76,103.41-43.51,27.46-10,48,3.34,50.93,33,3.13,31.83,3.2,64,3.21,96.07q.23,1339.67.19,2679.33c0,112.93.4,113.3,109.83,113.46q280.77.42,561.54,0c112.33-.13,112.77-.39,112.78-110.39q.16-1708.66.05-3417.34c0-16,.38-32.12-.58-48.12-3.16-52.51-14-62.6-69.22-65.66-5.33-.3-10.69-.29-16-.29-184.5,0-369,.26-553.51-.17-38.25-.09-73.63,8.18-108.33,24.42q-352.31,164.85-705.15,328.53c-46,21.47-91.89,43.44-136.93,66.9-38.09,19.83-43.7,29.55-35.09,70.16q51.57,243.21,106,485.8C4790.65,2764.7,4801.33,2777.63,4807.52,2789.36Z"/></g><g id="Layer_2" data-name="Layer 2"><path class="cls-2" d="M3428.43,4005.4c-15.56,9.66-31.3,19-46.66,29-137.39,89.21-289,136.35-451,152.73-45.16,4.57-90.37,12.73-135.53,12.6-250.54-.68-488.12-51.79-702.24-188.63-242.51-155-404.42-369.36-476.22-649.53-87.25-340.52-54.3-667.91,109.55-980.21,98.65-188,237-341.51,409.4-465.08,214-153.36,453.35-233,714.33-259.54,219.33-22.33,432.72,1.44,640.3,69,305.29,99.33,535.57,295,697.36,571,112.25,191.45,178,399.79,212.31,618.2,22.89,145.46,34.79,292.2,28.09,439.31-11.07,243.29-37.42,484.73-105.14,720-84.77,294.55-221.4,561.82-425.26,791.59-212.17,239.12-475.48,403.4-775.19,510.6a2377.23,2377.23,0,0,1-577.21,128.69C2383,5520.56,2220.8,5534,2057.67,5529.6c-34.53-.93-69-6.49-103.38-10.94-28.19-3.65-41.25-22.6-44-49.19-1.66-15.91-1.93-32-1.94-48-.12-181.78.9-363.56-.46-545.32-.72-95.72,25.8-93.63,98.38-89.86,222.58,11.56,443.25-5.91,659.27-64.08C2927.65,4651.59,3142,4510,3302.13,4289c50.47-69.67,90.2-145.24,123.6-224.23,6.95-16.44,10.58-34.28,15.74-51.47ZM1983.12,4862.63c-1.89,23-4.66,41.33-4.71,59.66-.34,152.36-.65,304.72,0,457.07.34,78.12,4.46,81.44,81.08,83.33,13.36.33,26.73,0,40.09.21,109.64,2.09,219-2,328.05-13.87,76.93-8.37,154.63-11.16,231-22.92,214.88-33.1,422.19-92.53,620.13-184.13q355.3-164.43,606.23-464c184.8-220.84,305.75-475.15,381.81-752,40.52-147.48,63.48-298,77.34-449.68,10.68-116.9,18.55-234.87,15.33-352-3.73-135.91-16.13-272-46.44-405.49-42.88-188.85-104.15-370.33-209.94-534.43-124.55-193.19-288.26-342.63-495.44-443.38-163.74-79.63-339.33-111.89-518.87-124.16-139.23-9.51-277.91,2.14-414.23,32.16-334.81,73.75-608.63,244.44-805.34,527.08-229.16,329.24-283.25,691.72-184,1078,75.69,294.52,256.88,505.7,522.47,647.37,121.52,64.82,251.69,101.18,388.49,118.79,152.85,19.67,303.49,12.86,453.74-19,149.69-31.7,282.38-96.49,396.08-199.53,11.71-10.61,24.47-21.2,38.62-27.74,26.25-12.14,57.11,9.12,55.63,38a229.25,229.25,0,0,1-9.43,55.11c-69.91,227.82-190.21,423.47-375.15,576C2922,4735.77,2646.2,4818.66,2350,4843.27c-111.6,9.28-223.5,21.57-336,12.78C2006.49,4855.46,1998.63,4859.18,1983.12,4862.63Z"/><path class="cls-3" d="M2436.65,2952.89c-4.59-106.62,10.56-206.62,45.53-303.14,40-110.39,104.13-202.66,198.63-275.42,202.83-156.16,582.75-119.68,732.51,154.33,61,111.64,101.66,229.69,119.2,355.19a1711.2,1711.2,0,0,1,15.59,191.49c5.78,218.16-85.33,362.23-307,459.33-136.68,59.88-280.3,63.53-423.63,23.91-126.73-35-223.44-110.74-289.64-225.26C2459,3214.17,2428.44,3086.24,2436.65,2952.89Zm69.9-9.88c0,34.74-1.86,69.59.35,104.18,6.46,100.93,40.34,192.81,94.91,277.59,52.78,82,125.67,136.7,218.42,166.69,144.42,46.7,286.89,36.79,421.37-27.92S3472.36,3298.1,3478,3137.27c6.82-195.21-25-381.72-113.21-559.39-97.68-196.77-353.22-281-549.68-202.73-124.3,49.51-204.47,142.38-256,262.46C2517.37,2735,2501.13,2837.41,2506.55,2943Z"/></g></svg>