<svg xmlns="http://www.w3.org/2000/svg" viewBox="0 0 634.26 247.99"><defs><style>.cls-1{fill:red;}.cls-2{fill:#27b04c;}.cls-3{fill:#fedd11;}.cls-4{fill:#21b6ea;}.cls-5{font-size:36px;fill:#231f20;font-family:MyriadPro-Regular, Myriad Pro;}.cls-6{letter-spacing:-0.05em;}.cls-7{letter-spacing:-0.08em;}.cls-8{letter-spacing:0.01em;}.cls-9{fill:#4971b8;}</style></defs><title>91BTV - 2019 website</title><g id="Layer_1" data-name="Layer 1"><path class="cls-1" d="M209.53,218.53v57.53c0,.55,0,1.1,0,1.65a2.06,2.06,0,0,1-2.19,2.15c-.39,0-.77,0-1.16,0h-116c-.33,0-.66,0-1,0-1.63-.07-2.34-.81-2.38-2.48,0-.44,0-.88,0-1.32a114.47,114.47,0,0,1,.88-12.94c.39-3.6,1.06-7.15,1.8-10.68.69-3.32,1.63-6.6,2.58-9.85a111.85,111.85,0,0,1,5.35-14.31,120.79,120.79,0,0,1,6-11.52,119.32,119.32,0,0,1,7.26-11,92.21,92.21,0,0,1,7.41-9c1.67-1.74,3.27-3.55,5-5.23a118.1,118.1,0,0,1,11.83-10.17c2.31-1.75,4.69-3.42,7.14-5a127.85,127.85,0,0,1,19.8-10.31A114.86,114.86,0,0,1,173.56,162,100.11,100.11,0,0,1,186,159.08c1.25-.2,2.48-.48,3.72-.66,1.63-.23,3.26-.44,4.89-.6,3.81-.39,7.63-.67,11.47-.71a14.37,14.37,0,0,1,1.47,0A2,2,0,0,1,209.5,159c.06.6,0,1.21,0,1.81Zm-4.35-57.21c-.46,0-.89-.07-1.31,0-1.32.06-2.63.15-3.94.22-.71,0-1.42,0-2.13.12-1.41.15-2.82.4-4.23.51A78.54,78.54,0,0,0,182.24,164a116.83,116.83,0,0,0-30.93,11.67,110.51,110.51,0,0,0-15.74,10.41A122,122,0,0,0,124,196.5a111.56,111.56,0,0,0-9.53,11.08,118.85,118.85,0,0,0-8,12.19c-1.89,3.28-3.6,6.65-5.16,10.09a116.62,116.62,0,0,0-7.91,24.49,100,100,0,0,0-2.23,18.89c0,.6-.11,1.2-.13,1.8a.62.62,0,0,0,.58.68,14.45,14.45,0,0,0,1.47.06H203.27c.44,0,.88,0,1.32,0s.76-.28.81-.85,0-1.09,0-1.64V163.66c0-.5,0-1,0-1.48A5.74,5.74,0,0,0,205.18,161.32Z" transform="translate(-86.76 -157.1)"/><path class="cls-2" d="M209.49,343.86v57.35c0,.61,0,1.21,0,1.81-.09,1.33-.76,2.08-2.06,2.08-2.84,0-5.69-.07-8.53-.23-2-.1-4-.34-6-.61-2.5-.34-5-.72-7.46-1.16a116,116,0,0,1-21.17-5.94,118.54,118.54,0,0,1-14.16-6.53,129.4,129.4,0,0,1-11.87-7.35c-3.28-2.29-6.34-4.87-9.49-7.32l-.26-.21c-3.17-3.1-6.52-6-9.5-9.3s-5.82-6.7-8.49-10.24a111.81,111.81,0,0,1-8.86-13.82,119.68,119.68,0,0,1-8-18.17A122.8,122.8,0,0,1,89.78,311a106.35,106.35,0,0,1-2.09-12.3c-.45-4.3-.81-8.61-.86-12.93a8.32,8.32,0,0,1,0-1.32,2,2,0,0,1,1.77-1.88,6.37,6.37,0,0,1,1-.07H205c.6,0,1.2,0,1.81,0a4.84,4.84,0,0,1,1.13.18,2,2,0,0,1,1.54,1.89c0,.66,0,1.32,0,2Zm-61.31-57.4H93.3c-2.55,0-2.57,0-2.41,2.58.15,2.29.38,4.57.55,6.87A94.87,94.87,0,0,0,92.84,306a111,111,0,0,0,2.89,12,108.54,108.54,0,0,0,4,11.14,122.58,122.58,0,0,0,6.32,13,114,114,0,0,0,8.88,13.41c2.2,2.86,4.56,5.6,7,8.28a111.77,111.77,0,0,0,10.45,10,115,115,0,0,0,14.94,10.69,115.65,115.65,0,0,0,46.25,15.92c.76.09,1.54.09,2.29.19a49.67,49.67,0,0,0,7.7.54c.38,0,.76,0,1.14,0a.77.77,0,0,0,.76-.74c.05-.65.06-1.31.06-2V289.08c0-.61,0-1.21,0-1.81a.74.74,0,0,0-.73-.75c-.6,0-1.2-.06-1.8-.06Z" transform="translate(-86.76 -157.1)"/><path class="cls-3" d="M212.12,218.5v-57c0-.6,0-1.2,0-1.8.08-1.69.77-2.41,2.43-2.46.81,0,1.64,0,2.46.08s1.63.18,2.45.17c2.64,0,5.24.37,7.85.57a100.23,100.23,0,0,1,11.84,1.87c3.43.7,6.81,1.66,10.17,2.64a110.28,110.28,0,0,1,14.3,5.36,117.88,117.88,0,0,1,11.8,6.14c3.59,2.12,7.05,4.43,10.4,6.89a83.41,83.41,0,0,1,8.51,7c2.29,2.2,4.62,4.36,6.86,6.61a105.42,105.42,0,0,1,7.55,8.66A118.43,118.43,0,0,1,319.9,220a97.69,97.69,0,0,1,5,10.35c1.16,2.9,2.35,5.78,3.35,8.74a117.79,117.79,0,0,1,4.48,17.32c.26,1.51.58,3,.79,4.53.24,1.73.33,3.49.57,5.22a57.41,57.41,0,0,1,.38,6.55c0,1.31.17,2.62.25,3.93a8.83,8.83,0,0,1,0,1.15,2,2,0,0,1-1.85,2,5.55,5.55,0,0,1-.82.06H216.2c-.61,0-1.21,0-1.81,0a2.11,2.11,0,0,1-2.25-2.29c0-.6,0-1.2,0-1.8Zm3.94-.19v54.56c0,.55,0,1.09,0,1.64.06,1.1.26,1.29,1.41,1.35H328.4c.38,0,.77,0,1.15,0,.93-.07,1.19-.29,1.2-1.2,0-1.53,0-3.07-.1-4.6-.21-2.5-.47-5-.85-7.5-.52-3.41-1.07-6.81-1.79-10.18a109.62,109.62,0,0,0-3.65-12.79c-.92-2.64-2-5.22-3.05-7.81a96.11,96.11,0,0,0-5.6-11.33,113.8,113.8,0,0,0-9.36-14.07,78,78,0,0,0-7.17-8.34c-.32-.3-.58-.66-.88-1-.95-1-1.87-2-2.85-3s-1.88-1.67-2.78-2.55a91,91,0,0,0-9-7.42,115.27,115.27,0,0,0-10-6.63,114.11,114.11,0,0,0-25.79-11.37c-3.42-1-6.87-1.89-10.35-2.6A77,77,0,0,0,228,162c-2.35-.18-4.67-.6-7-.59-.49,0-1-.12-1.47-.14-.82-.05-1.64-.1-2.46-.08-.62,0-.88.29-.93.92s0,1.21,0,1.81Z" transform="translate(-86.76 -157.1)"/><path class="cls-4" d="M273.41,282.76h57.52c.65,0,1.31,0,2,.05a1.49,1.49,0,0,1,1.47,1.48,8.78,8.78,0,0,1,0,1.15c0,1.26,0,2.52,0,3.78a66.34,66.34,0,0,1-.55,7c-.12,1.14-.28,2.28-.38,3.42a91.21,91.21,0,0,1-2.09,12,110.32,110.32,0,0,1-3.84,13.25c-1.36,3.76-2.88,7.46-4.6,11.07a127.84,127.84,0,0,1-7.27,13.24c-.52.84-1.11,1.63-1.65,2.45A114,114,0,0,1,306.23,362c-1.23,1.47-2.56,2.85-3.86,4.26s-2.63,2.94-4.05,4.3c-2.88,2.76-5.85,5.44-9,7.95-2.77,2.24-5.66,4.33-8.62,6.29a120.92,120.92,0,0,1-40.89,17.37,86.43,86.43,0,0,1-11.66,1.92c-1.58.12-3.15.36-4.73.54a1.87,1.87,0,0,1-.32,0l-8,.35A5.42,5.42,0,0,1,214,405a1.93,1.93,0,0,1-1.75-1.7,4.46,4.46,0,0,1-.06-.82c0-.49,0-1,0-1.47V286.61c0-.39,0-.77,0-1.15-.11-1.91.72-2.83,2.77-2.7.5,0,1,0,1.48,0ZM216,401a6,6,0,0,0,2.34.12c1.48,0,3,0,4.43-.11,1.8-.13,3.59-.37,5.39-.58,1.09-.12,2.18-.22,3.26-.41,4.58-.8,9.16-1.64,13.65-2.89a106.63,106.63,0,0,0,10.76-3.55A125.56,125.56,0,0,0,268,388.14,112.14,112.14,0,0,0,278.44,382c3.17-2.14,6.28-4.38,9.25-6.82a114.67,114.67,0,0,0,8.89-8c2.11-2.15,4.24-4.29,6.17-6.6,2.38-2.85,4.68-5.77,6.81-8.84a108.23,108.23,0,0,0,8.53-14.21c.45-.94.92-1.87,1.39-2.8a98.5,98.5,0,0,0,4.42-10.43A112.35,112.35,0,0,0,329,304.89c.42-2.42.77-4.86,1.09-7.3q.36-2.77.55-5.55c.1-1.53.1-3.07.09-4.6,0-.7-.32-1-1-1s-1.2,0-1.81,0H218.49c-.55,0-1.1,0-1.65,0-.71.06-1,.32-1.06,1s0,1.2,0,1.8V398.48c0,.55,0,1.1,0,1.65A4.34,4.34,0,0,0,216,401Z" transform="translate(-86.76 -157.1)"/></g><g id="Layer_3" data-name="Layer 3"><text class="cls-5" transform="translate(391.16 198.56)">Open<tspan class="cls-6" x="83.3" y="0"> </tspan><tspan class="cls-7" x="89.28" y="0">Y</tspan><tspan x="106.02" y="0">our </tspan><tspan class="cls-8" x="165.02" y="0">M</tspan><tspan x="194.4" y="0">ind</tspan></text></g><g id="Layer_2" data-name="Layer 2"><path class="cls-9" d="M658.89,304.14c.2-.63.32-.92.39-1.22,1.91-8.85,4.35-17.55,6.93-26.21q3-10.08,6-20.16,1.5-5,3-10.07c0-.16.11-.31.15-.47a1.43,1.43,0,0,1,1.57-1.15h17.25a2.81,2.81,0,0,1,.65.07.7.7,0,0,1,.61.83,9.94,9.94,0,0,1-.39,1.42q-3.76,11.31-7.56,22.6-6.62,19.71-13.25,39.41-2.26,6.69-4.55,13.38c-.07.2-.15.41-.21.62a1.62,1.62,0,0,1-1.83,1.29c-.93,0-1.86,0-2.8,0H649.58c-2.12,0-2.14,0-2.78-2q-4-12.36-7.92-24.72-3.54-11-7.1-22.06-4.15-12.9-8.28-25.82c-.4-1.25-.79-2.5-1.14-3.77-.22-.79.06-1.16.83-1.24a11,11,0,0,1,1.15,0c5.43,0,10.85,0,16.27,0,2,0,2,0,2.59,2q3.33,11.52,6.64,23.06c1.44,5,2.91,10,4.28,15,1.59,5.81,3.19,11.62,4.32,17.54C658.52,302.9,658.68,303.35,658.89,304.14ZM624,246.37a2,2,0,0,0,.18,1.52q2.51,7.91,5,15.81,2.4,7.51,4.81,15,4.25,13.23,8.48,26.44,2.58,8.05,5.16,16.12c.57,1.79.65,1.88,2.52,1.88h16.1c2,0,2,0,2.57-1.82q5-14.71,9.92-29.43,3.56-10.59,7.1-21.19c1-3.11,2.11-6.22,3.16-9.33q2.34-6.93,4.65-13.87a5.52,5.52,0,0,0,.16-1.08,3,3,0,0,0-1.68-.26H678.68c-2.09,0-2.1,0-2.7,2-3,10.13-6.07,20.25-9,30.39-1.54,5.26-3,10.54-4.39,15.83-.93,3.55-1.69,7.14-2.54,10.71a9.43,9.43,0,0,1-.46,1.57,1,1,0,0,1-.62.45.65.65,0,0,1-.76-.48,14.29,14.29,0,0,1-.42-1.59c-1.47-7.59-3.42-15.06-5.53-22.48Q647.3,265.32,642.3,248c-.11-.37-.22-.73-.35-1.1a1,1,0,0,0-1-.72c-.22,0-.44,0-.66,0H625A5.39,5.39,0,0,0,624,246.37Z" transform="translate(-86.76 -157.1)"/><path class="cls-1" d="M417.9,294.52l-.95.59a20.48,20.48,0,0,1-9.24,3.13c-.93.09-1.85.26-2.78.26a26.18,26.18,0,0,1-14.39-3.87,21.73,21.73,0,0,1-9.75-13.3,27.41,27.41,0,0,1,10.63-29.61,29.57,29.57,0,0,1,14.63-5.32,31.62,31.62,0,0,1,13.12,1.41,25.26,25.26,0,0,1,14.29,11.7,35.61,35.61,0,0,1,4.35,12.67,45.2,45.2,0,0,1,.58,9,63.48,63.48,0,0,1-2.16,14.75,41.14,41.14,0,0,1-8.71,16.21,37.72,37.72,0,0,1-15.88,10.46,48.84,48.84,0,0,1-11.83,2.64,81.32,81.32,0,0,1-10,.5c-.71,0-1.41-.13-2.12-.22a1,1,0,0,1-.9-1c0-.32,0-.65,0-1,0-3.73,0-7.45,0-11.17,0-2,.53-1.92,2-1.85a43,43,0,0,0,13.5-1.31,22.69,22.69,0,0,0,15.58-13.47,9.12,9.12,0,0,0,.32-1.05Zm-29.61,17.56c0,.47-.09.85-.09,1.22,0,3.12,0,6.24,0,9.37,0,1.6.09,1.66,1.66,1.7h.82a52,52,0,0,0,6.72-.29c1.58-.17,3.17-.23,4.73-.47a47.1,47.1,0,0,0,12.71-3.77,35.44,35.44,0,0,0,12.42-9.51,40.24,40.24,0,0,0,7.82-15.4,53.46,53.46,0,0,0,1.59-9.21,62.28,62.28,0,0,0,.31-7.22,43,43,0,0,0-1-8.3,33.74,33.74,0,0,0-4.3-10.95,24.88,24.88,0,0,0-10.15-9.09A28.42,28.42,0,0,0,411,247.63a29.88,29.88,0,0,0-8.49.66,26.23,26.23,0,0,0-16.5,10.8c-4.69,6.74-5.8,14.17-3.77,22.08a20.32,20.32,0,0,0,10.71,13.27,23,23,0,0,0,8,2.43,27.61,27.61,0,0,0,9.29-.39,17.14,17.14,0,0,0,8.12-4.09,3.34,3.34,0,0,1,.79-.56.81.81,0,0,1,1.14.77,4.78,4.78,0,0,1-.2,1.13,23.93,23.93,0,0,1-7.68,11.8c-4.79,4-10.44,5.65-16.51,6.15a42.76,42.76,0,0,1-6.88.26A3.14,3.14,0,0,0,388.29,312.08Z" transform="translate(-86.76 -157.1)"/><path class="cls-4" d="M598.61,292.76q0,14.55,0,29.09c0,.6,0,1.21-.07,1.81a.78.78,0,0,1-.74.75,9.5,9.5,0,0,1-1.31.08H581.85c-2,0-2.08-.11-2.08-2.19q0-6.81,0-13.64v-45c0-.6,0-1.2-.06-1.8a.75.75,0,0,0-.73-.75c-.55-.05-1.1-.07-1.64-.07H561.39a14.89,14.89,0,0,1-1.64-.07c-.66-.08-.94-.4-1-1.09a11,11,0,0,1,0-1.15V246.54c.06-1.48.22-1.64,1.77-1.68.33,0,.66,0,1,0h55.88c.5,0,1,0,1.48,0,1.06.07,1.3.33,1.39,1.42,0,.28,0,.55,0,.82v11.67a8.77,8.77,0,0,1-.06,1.15,1,1,0,0,1-1.08,1c-.54.05-1.09.05-1.64.05H601a14.63,14.63,0,0,0-1.48,0,.82.82,0,0,0-.86.82c0,.54,0,1.09,0,1.64Zm-17.76-1.34q0,14.79,0,29.58c0,2.1,0,2.15,2.08,2.16h12.49a11,11,0,0,0,1.15,0,.89.89,0,0,0,.9-1c0-.71,0-1.43,0-2.14q0-28.75,0-57.51c0-.6,0-1.21.06-1.81a1,1,0,0,1,1-.95,15.07,15.07,0,0,1,1.64-.06H617c1.86,0,1.95-.09,2-1.94,0-3.17,0-6.35,0-9.53,0-.33,0-.66,0-1-.07-.7-.32-.95-1.06-1s-1.2,0-1.8,0H561.63c-1.72,0-1.84.14-1.84,1.92,0,3.23,0,6.46,0,9.69a8.19,8.19,0,0,0,0,1,.82.82,0,0,0,.83.85c.54.05,1.09.05,1.64.05h16.1a12.78,12.78,0,0,1,1.64.09.81.81,0,0,1,.74.76c.05.6.07,1.2.07,1.8Q580.87,276.88,580.85,291.42Z" transform="translate(-86.76 -157.1)"/><path class="cls-2" d="M539.2,281.52c.51.25.84.43,1.18.57a21.8,21.8,0,0,1,9.18,7,16.82,16.82,0,0,1,2.61,4.91,19.13,19.13,0,0,1,1.08,5.95,24.12,24.12,0,0,1-.82,7.32,21.94,21.94,0,0,1-3.95,7.32,24.53,24.53,0,0,1-12.81,8.18,60.68,60.68,0,0,1-11.28,2.13c-1.91.18-3.83.15-5.74.34a55.33,55.33,0,0,1-7,.17c-3.28-.09-6.56-.31-9.84-.5-1.69-.11-3.38-.26-5.07-.41a13.23,13.23,0,0,1-1.78-.3c-.71-.17-.87-.4-.93-1.15,0-.44,0-.88,0-1.32V247.58c0-1.46.18-1.68,1.66-1.92,1.89-.3,3.79-.54,5.7-.75,1.52-.16,3.05-.27,4.58-.33,3.83-.13,7.66-.41,11.49-.39a79.09,79.09,0,0,1,13.58,1,27.8,27.8,0,0,1,6.93,2,24.35,24.35,0,0,1,8.12,5.47,17.15,17.15,0,0,1,4.57,11,16.85,16.85,0,0,1-1.47,8.16,18.06,18.06,0,0,1-8.16,8.49A4,4,0,0,0,539.2,281.52Zm-23.34-35.95c-2.44.05-5.72,0-9,.24-3.07.19-6.11.48-9.16.8a17.94,17.94,0,0,0-1.78.32.93.93,0,0,0-.81.9c0,.54-.05,1.09-.05,1.64v71.16c0,.44,0,.88,0,1.31.06.86.21,1.06,1.06,1.17,1.36.16,2.72.3,4.08.4,2.46.2,4.91.47,7.37.51,4.43.07,8.86.16,13.3-.17a86.1,86.1,0,0,0,9.62-1.11A35.31,35.31,0,0,0,541,319.17a20.52,20.52,0,0,0,9.53-10.48,20.06,20.06,0,0,0,1.29-10.46,17.83,17.83,0,0,0-8.5-13.21,26.05,26.05,0,0,0-5.36-2.48,4.84,4.84,0,0,1-1.16-.58.64.64,0,0,1,0-1,4.9,4.9,0,0,1,.71-.39c.89-.44,1.79-.84,2.66-1.29a16.42,16.42,0,0,0,7-6.52,16,16,0,0,0,2-10,15.87,15.87,0,0,0-6.07-11.06,27,27,0,0,0-11.27-5.11,52.81,52.81,0,0,0-10.11-1.06C520.1,245.55,518.4,245.57,515.86,245.57Z" transform="translate(-86.76 -157.1)"/><path class="cls-3" d="M477.92,286v35.51c0,.55,0,1.1,0,1.64-.07.93-.38,1.22-1.35,1.3-.33,0-.66,0-1,0H461.91c-2.05,0-2.14-.1-2.14-2.14V267.74c0-.49,0-1,0-1.48-.05-1.19-.35-1.39-1.41-.91-1.59.73-3.18,1.48-4.76,2.23l-6.68,3.17a6.43,6.43,0,0,1-.92.35.74.74,0,0,1-.92-.5,8.17,8.17,0,0,1-.32-1.1q-1.11-5.06-2.21-10.11c-.09-.43-.16-.87-.23-1.3a1.14,1.14,0,0,1,.7-1.33l.73-.38L455.38,251c2-.92,4-1.83,5.95-2.79a6.23,6.23,0,0,1,2.84-.66c3.84,0,7.67,0,11.51,0a8.16,8.16,0,0,1,1.31.09,1,1,0,0,1,.86.86c0,.43.06.87.07,1.31V286ZM446.16,269.6a2.89,2.89,0,0,0,1.77-.54l9.64-4.61c.69-.33,1.4-.63,2.11-.89a.72.72,0,0,1,1.05.68c.06.65.06,1.31.06,2q0,27.45,0,54.9c0,2.31,0,2.32,2.25,2.32h11.5c2.3,0,2.31,0,2.31-2.26q0-35,0-70c0-.33,0-.66,0-1-.06-1.07-.28-1.28-1.42-1.34H463.77a5.15,5.15,0,0,0-2.22.5L447.1,256c-.94.44-1.88.89-2.81,1.37s-.89.6-.71,1.44q1.05,5,2.17,9.95A3,3,0,0,0,446.16,269.6Z" transform="translate(-86.76 -157.1)"/><path class="cls-1" d="M397.59,273a15.79,15.79,0,0,1,.93-6.21,12.12,12.12,0,0,1,4.07-5.64c4.15-3.2,11.94-2.45,15,3.16a21.24,21.24,0,0,1,2.44,7.28,36.77,36.77,0,0,1,.32,3.92c.12,4.47-1.75,7.42-6.29,9.41a12.71,12.71,0,0,1-8.68.49,9.62,9.62,0,0,1-5.94-4.61A13.64,13.64,0,0,1,397.59,273Zm1.43-.2c0,.71,0,1.43,0,2.14a11.7,11.7,0,0,0,1.94,5.68,8.13,8.13,0,0,0,4.47,3.42,11.4,11.4,0,0,0,8.64-.57c2.75-1.33,4.72-3.39,4.84-6.69a23.36,23.36,0,0,0-2.32-11.46,9.14,9.14,0,0,0-11.26-4.15,9.43,9.43,0,0,0-5.25,5.37A14,14,0,0,0,399,272.75Z" transform="translate(-86.76 -157.1)"/><path class="cls-2" d="M511.41,300.34c0-3.17,0-6.35,0-9.52,0-2.07.18-2.23,2.26-2.24,1.86,0,3.72,0,5.58,0a23.8,23.8,0,0,1,7.26,1.19,12,12,0,0,1,6,3.87,10.71,10.71,0,0,1,2.19,7.54,12.52,12.52,0,0,1-.33,2.11,9.52,9.52,0,0,1-4.08,5.94,17.92,17.92,0,0,1-7.65,2.76,41.09,41.09,0,0,1-6.56.25c-1.14,0-2.29-.15-3.43-.28-.85-.1-1.12-.41-1.2-1.28,0-.44,0-.88,0-1.32C511.4,306.36,511.41,303.35,511.41,300.34Zm1.3.14v8.22a14.5,14.5,0,0,0,.09,1.47.74.74,0,0,0,.64.66,9.51,9.51,0,0,0,1.31.1h5.09a20.12,20.12,0,0,0,6.44-1.1,12.18,12.18,0,0,0,3.53-1.72,8.94,8.94,0,0,0,3.53-6.44c.44-3.91-.88-7.77-5.05-9.8a18.48,18.48,0,0,0-7.43-1.89c-2.13-.1-4.27-.07-6.4-.06-1.54,0-1.7.19-1.75,1.69,0,.33,0,.66,0,1Z" transform="translate(-86.76 -157.1)"/><path class="cls-2" d="M511.41,267.28c0-2.52,0-5,0-7.56,0-1.85.34-2.22,2.17-2.33,2.07-.14,4.15-.28,6.23-.29a21.34,21.34,0,0,1,5.21.62,12.51,12.51,0,0,1,4.19,1.82,8,8,0,0,1,3.54,5.86,8.86,8.86,0,0,1-4.31,9.25,13.15,13.15,0,0,1-3.74,1.64,24.49,24.49,0,0,1-6,.85h-5.25a7.33,7.33,0,0,1-1.15-.09.88.88,0,0,1-.77-.75,9,9,0,0,1-.11-1.47C511.4,272.32,511.41,269.8,511.41,267.28Zm1.3-.23v6.57a9.5,9.5,0,0,0,.07,1.31.87.87,0,0,0,.86.83,3.67,3.67,0,0,0,.66.05c2,0,4.05.05,6.07-.07a15.94,15.94,0,0,0,6.94-1.83,7.57,7.57,0,0,0,4.24-6.74,7.46,7.46,0,0,0-4.86-7.61,17.31,17.31,0,0,0-5.44-1.12c-1.81-.07-3.62,0-5.42,0a19.74,19.74,0,0,0-2.28.29.91.91,0,0,0-.8.91c0,.38,0,.76,0,1.14Z" transform="translate(-86.76 -157.1)"/></g></svg>