<svg id="Layer_1" data-name="Layer 1" xmlns="http://www.w3.org/2000/svg" viewBox="0 0 8000 8000"><defs><style>.cls-1{fill:red;}.cls-2{fill:#27b04c;}.cls-3{fill:#fedd11;}.cls-4{fill:#21b6ea;}</style></defs><title>Artboard 1</title><path class="cls-1" d="M4040.22,2412.28q0,663.73,0,1327.48c0,12.64.43,25.32-.39,37.91-2.07,31.6-18.44,47.58-50.57,49.8-8.82.6-17.7.33-26.55.33H1285c-7.59,0-15.18.19-22.76-.16-37.78-1.76-54.1-18.75-55-57.38-.22-10.1.52-20.22.46-30.33-.64-100,9.61-199.23,20.31-298.56,9-83.14,24.52-165.07,41.46-246.58,15.93-76.59,37.56-152.13,59.62-227.27,33.16-112.91,75.09-222.88,123.31-330.13,40.94-91,87.36-179.38,137.93-265.71a2732.71,2732.71,0,0,1,167.41-252.77c53.59-71.86,108.57-142.93,170.91-207.79,38.52-40.08,75.45-81.77,115.16-120.63a2776,2776,0,0,1,272.93-234.68c53.51-40.24,108.39-79,164.87-114.87a2964.51,2964.51,0,0,1,456.77-237.84,2649,2649,0,0,1,271.65-95.53c94.52-27.59,190.1-51.9,287.65-67.22,28.69-4.51,57.08-10.94,85.81-15.11,37.47-5.43,75.07-10.19,112.74-14,88-8.86,176.12-15.48,264.6-16.22,11.37-.09,22.84-.68,34.1.5,25.59,2.66,41.76,18.45,44.38,43.79,1.42,13.78.84,27.78.84,41.68Q4040.25,1746.65,4040.22,2412.28ZM3939.74,1092.15c-10.7-.45-20.55-1.59-30.33-1.14-30.26,1.36-60.49,3.36-90.73,5-16.4.92-32.88,1-49.18,2.71-32.62,3.52-65.05,9.27-97.73,11.72-88.45,6.64-175.29,24-261.35,43.33q-233.16,52.46-454.44,144.29a2744.39,2744.39,0,0,0-259.39,125,2586.84,2586.84,0,0,0-363.14,240.31,2858.28,2858.28,0,0,0-267.72,240.44A2575.15,2575.15,0,0,0,1846,2159.56a2744.43,2744.43,0,0,0-185.91,281.31q-65.31,113.53-118.94,232.84a2667.34,2667.34,0,0,0-182.55,565c-29.31,143.76-49.85,288.74-51.48,435.87-.15,13.85-2.49,27.67-2.86,41.53-.23,8.39,4.57,14.87,13.24,15.77a330.28,330.28,0,0,0,34,1.28q1272.11.08,2544.21,0c10.11,0,20.26.11,30.3-.77,12.61-1.1,17.73-6.31,18.69-19.5.91-12.58.72-25.26.72-37.89q0-1264.51,0-2529c0-11.37.29-22.78-.55-34.1C3944.47,1105.91,3941.9,1100.08,3939.74,1092.15Z"/><path class="cls-2" d="M4039.15,5304.24q0,661.67,0,1323.34c0,13.9.48,27.85-.46,41.7-2.1,30.7-17.37,48-47.45,47.91-65.65-.28-131.36-1.67-196.91-5.15-46.6-2.48-93.13-8-139.41-14.2q-86.32-11.62-172.15-26.84c-167.17-29.87-329.86-76.07-488.33-137a2713.12,2713.12,0,0,1-326.83-150.77,2946.38,2946.38,0,0,1-273.85-169.51c-75.81-52.88-146.31-112.3-219-169a71.28,71.28,0,0,1-5.88-4.78c-73.22-71.39-150.64-138.21-219.33-214.62-68.53-76.24-134.29-154.46-195.82-236.24-76.09-101.14-144-208-204.45-318.94a2731.64,2731.64,0,0,1-185-419.17c-34.56-100.55-64.55-202.34-87.4-306-20.66-93.7-38.36-188-48.23-283.76-10.23-99.33-18.68-198.61-19.85-298.46-.12-10.1-.55-20.32.74-30.28,3.19-24.47,16.93-38.86,40.88-43.38,7.4-1.4,15.08-1.5,22.64-1.68,11.37-.29,22.75-.15,34.13-.15H3934.88c13.9,0,27.82-.28,41.7.42a111.3,111.3,0,0,1,26.1,4c21.48,6.43,34.43,20.77,35.69,43.75.84,15.12.75,30.31.75,45.48Q4039.18,4642.57,4039.15,5304.24ZM2624.5,3979.54q-633.2,0-1266.4,0c-58.72,0-59.35.13-55.52,59.54,3.41,52.89,8.78,105.65,12.63,158.51,5.7,78.23,18.25,155.44,32.28,232.53,17,93.38,39.71,185.44,66.66,276.22a2499.37,2499.37,0,0,0,91.67,256.93c43.13,102.71,91,202.88,145.77,299.78a2631.33,2631.33,0,0,0,205,309.45c50.81,66,105.15,129.2,161.34,191,75.06,82.52,156.06,158.38,241,230.09a2657.3,2657.3,0,0,0,344.92,246.7,2726.08,2726.08,0,0,0,456.89,220.3c197.36,73.36,401.38,120.85,610.3,147,17.54,2.19,35.38,2,52.87,4.42,58.89,8.13,117.94,13.59,177.46,12.56,8.83-.16,17.69-.13,26.47-.91,10-.89,16.63-6.89,17.4-16.86,1.17-15.08,1.47-30.27,1.47-45.41q.1-629.4.06-1258.81,0-631.29-.05-1262.6c0-13.88-.3-27.79-1.18-41.64-.64-10.07-6.77-16.6-16.78-17.41-13.82-1.13-27.74-1.36-41.63-1.36Q3255.8,3979.5,2624.5,3979.54Z"/><path class="cls-3" d="M4099.91,2411.46q0-657.9,0-1315.81c0-13.9-.37-27.83.29-41.7,1.87-39,17.78-55.57,55.88-56.77,18.89-.6,37.87.82,56.79,1.88s37.76,4.19,56.61,4c60.84-.77,120.82,8.52,181.2,13.23,92.31,7.21,182.85,24.9,273.09,43.12,79.14,16,157.13,38.37,234.77,60.85,113.05,32.74,222.68,75.59,329.95,123.62,93.38,41.81,183.83,89.7,272.18,141.81a2847.29,2847.29,0,0,1,240,159c68.14,50.09,135.24,101.89,196.37,160.78,52.76,50.83,106.61,100.56,158.22,152.52,62.35,62.78,119.25,130.46,174.36,199.73,97,122,182.31,251.86,257.21,388.23,42.53,77.43,82.44,156.5,115.56,238.78,26.9,66.82,54.25,133.34,77.4,201.67,44.28,130.75,79.43,263.69,103.23,399.66,6.1,34.85,13.58,69.5,18.38,104.52,5.48,40,7.59,80.47,13.11,120.46,6.94,50.25,7.56,100.69,8.74,151.22.71,30.25,4,60.44,5.73,90.68a186.3,186.3,0,0,1-.28,26.52c-2.24,26.32-16.19,41.09-42.56,45.27a136.7,136.7,0,0,1-18.89,1.17c-11.38.2-22.76.14-34.13.14q-1319.61,0-2639.21,0c-13.9,0-27.85.46-41.7-.47-34.21-2.29-49.56-17.91-51.88-52.76-.92-13.84-.46-27.79-.46-41.7Q4099.91,3071.27,4099.91,2411.46Zm90.82-4.31q0,629.43,0,1258.87c0,12.64-.33,25.3.31,37.91,1.29,25.27,6.05,29.67,32.48,31,7.57.38,15.17.22,22.75.22q1268.34,0,2536.69,0c8.85,0,17.73.22,26.54-.41,21.47-1.54,27.59-6.65,27.73-27.63.23-35.37.71-70.9-2.29-106.07-4.94-57.85-10.78-115.74-19.53-173.11-12-78.61-24.77-157.26-41.44-235-21.48-100.11-50.65-198.25-84.27-295.11-21.16-61-45.69-120.48-70.21-180.08-37.1-90.14-80.72-177-129.21-261.48-64.88-113-135.09-222.53-216.05-324.8-52.52-66.35-103.93-133.73-165.46-192.39-7.29-6.95-13.37-15.16-20.34-22.47-21.79-22.83-43.21-46.05-65.76-68.11-20.76-20.3-43.37-38.68-64.16-59-64.42-62.8-135.77-117.4-207.46-171.1-73.77-55.26-151.06-105.71-230.4-153.09-81.54-48.69-165.14-93.24-251.42-132.45-111.66-50.74-225.79-95.88-343.73-129.88-78.87-22.73-158.54-43.49-238.92-59.9-72.86-14.87-145.9-30-220.57-35.47-54.08-4-107.69-13.87-162.21-13.55-11.29.07-22.57-2.68-33.9-3.3-18.89-1-37.85-2.18-56.74-1.79-14.19.3-20.35,6.83-21.5,21.35-1.1,13.83-.9,27.77-.9,41.67Q4190.71,1779.61,4190.73,2407.15Z"/><path class="cls-4" d="M5513.67,3887.54q663.56,0,1327.11,0c15.15,0,30.41-.43,45.44,1.11,21.21,2.17,31.31,12.78,34,34.07,1.1,8.73.9,17.65.88,26.49,0,29.07-.38,58.14-.4,87.21,0,54.41-6.83,108.28-12.59,162.24-2.81,26.36-6.53,52.63-8.86,79-8.27,93.39-27.78,184.83-48.29,276a2545.27,2545.27,0,0,1-88.65,305.67c-31.33,86.81-66.39,172.08-106,255.45a2974.12,2974.12,0,0,1-167.74,305.54c-12.08,19.24-25.53,37.61-38.06,56.57-55.06,83.38-115.67,162.65-179.64,239.28-28.29,33.89-59,65.74-89,98.2-30.82,33.4-60.62,67.92-93.41,99.29-66.6,63.71-135,125.45-206.81,183.44-64,51.68-130.53,99.76-199,145-160.66,106.2-329.84,196.07-509.18,267.38a2808.2,2808.2,0,0,1-434.3,133.48c-88.64,19.51-178,37.25-269,44.34-36.46,2.84-72.72,8.27-109.07,12.52-2.51.29-5,.74-7.53.86-61.79,2.74-123.57,5.55-185.37,8.06a134.43,134.43,0,0,1-26.45-1.33c-22.9-3.64-36.13-16.73-40.26-39.24a119.83,119.83,0,0,1-1.49-18.86c-.26-11.37-.18-22.75-.18-34.13q0-1319.52,0-2639c0-8.85.46-17.72,0-26.54-2.45-44,16.57-65.12,64.08-62.25,11.33.69,22.74.08,34.12.08ZM4189.38,6616.34c18.82,7.25,36.62,2.67,54,2.71,34.09.08,68.29.1,102.26-2.42,41.51-3.07,82.84-8.68,124.22-13.41,25.08-2.87,50.32-5.06,75.16-9.42,105.78-18.55,211.44-37.85,315-66.84,84-23.51,167.28-49.54,248.34-81.82,95.1-37.87,189.15-78.19,279.83-126.05,82.76-43.69,163.9-90.26,241.41-142.56,73.26-49.43,144.94-101.1,213.38-157.44,71.29-58.68,140.73-119.18,205.3-185.07,48.61-49.59,97.82-99,142.24-152.2,54.95-65.88,108.16-133.27,157.27-204,73-105.06,140.39-213.09,196.65-328,10.56-21.57,21.44-43,32.2-64.45,39.12-78.07,72-158.9,101.88-240.76,53-145.12,92-294.21,118.32-446.47,9.68-56,17.78-112.22,25.11-168.54q8.3-63.8,12.58-128.08c2.33-35.24,2.46-70.67,2.16-106-.14-16.25-7.29-22.58-23.56-23.94-13.82-1.15-27.77-.92-41.67-.92q-722.31-.06-1444.62,0-540.31,0-1080.62,0c-12.64,0-25.32-.23-37.89.78-16.46,1.33-23.06,7.42-24.5,23.25-1.26,13.81-1.05,27.77-1.05,41.66q-.06,1260.74,0,2521.46c0,12.63-.4,25.33.71,37.88C4184.15,6602.86,4187.43,6609.79,4189.38,6616.34Z"/></svg>